<svg id="Capa_1" data-name="Capa 1" xmlns="http://www.w3.org/2000/svg" viewBox="0 0 26 26"><defs><style>.cls-1{fill:#fff;}</style></defs><title>logo</title><circle cx="13" cy="13" r="13"/><path class="cls-1" d="M1.75,19.49a4.12,4.12,0,0,1,.81-1.4,4.41,4.41,0,0,1,1.19-1,5.87,5.87,0,0,1,1.47-.55,7.18,7.18,0,0,1,1.62-.18H9.45l-1.31-4-.43,1.33c-.12.34-.23.68-.33,1s-.18.56-.23.68a7.56,7.56,0,0,0-2.64.41,4,4,0,0,0-2,1.5l.26-.77.38-1.12c.15-.42.3-.87.46-1.35s.33-1,.5-1.42L5.35,9.09c.54-1.55,1.47-2.32,2.79-2.32s2.25.77,2.79,2.32l3.61,10.4a4.63,4.63,0,0,1,.24,1.3,1.73,1.73,0,0,1-.31,1,1.4,1.4,0,0,1-.55.47,3.31,3.31,0,0,1-.76.21,1.79,1.79,0,0,1-1.48-.4,3.55,3.55,0,0,1-.86-1.49l-.22-.63H5.69c0,.07-.07.2-.13.38a5.47,5.47,0,0,1-.21.6,4.87,4.87,0,0,1-.33.64,1.82,1.82,0,0,1-.43.51,2,2,0,0,1-1.27.43,2,2,0,0,1-.87-.19,1.33,1.33,0,0,1-.61-.53,2.17,2.17,0,0,1-.32-1A3.77,3.77,0,0,1,1.75,19.49Z" transform="translate(-1 -2)"/><path class="cls-1" d="M15.48,7.33A1.87,1.87,0,0,1,17,6.77h4A5.81,5.81,0,0,1,25.31,8.3a6,6,0,0,1,1.49,4.36A6,6,0,0,1,25.31,17,5.81,5.81,0,0,1,21,18.56H18.83v1.49a4,4,0,0,1-.1.93,2.06,2.06,0,0,1-.32.77,1.6,1.6,0,0,1-.6.52,2.4,2.4,0,0,1-1.87,0,1.66,1.66,0,0,1-.59-.52A2.33,2.33,0,0,1,15,21a4,4,0,0,1-.1-.94V10.17a2.5,2.5,0,0,0,.77.93,3.16,3.16,0,0,0,1,.45,4.47,4.47,0,0,0,1.09.15h1.06v3H21a1.74,1.74,0,0,0,1.42-.54,2.32,2.32,0,0,0,.45-1.51,2.48,2.48,0,0,0-.39-1.43,1.62,1.62,0,0,0-1.34-.61H16.88a1.73,1.73,0,0,1-1-.32,1.88,1.88,0,0,1-.65-.8A2.28,2.28,0,0,1,15,8.42,2,2,0,0,1,15.48,7.33Z" transform="translate(-1 -2)"/></svg>